<svg width="205" height="60" viewBox="0 0 205 60" fill="none" xmlns="http://www.w3.org/2000/svg">
<path d="M6 6.6H53.4V56.4H6V6.6Z" fill="white"/>
<path d="M6.42857 0C2.87946 0 0 2.87946 0 6.42857V53.5714C0 57.1205 2.87946 60 6.42857 60H53.5714C57.1205 60 60 57.1205 60 53.5714V6.42857C60 2.87946 57.1205 0 53.5714 0H6.42857ZM29.9687 8.57196C35.4533 8.53205 40.7321 11.4208 43.6953 16.3149C47.4123 22.4546 46.6057 30.3214 41.7171 35.5062C41.1249 36.1342 40.4983 36.7309 39.8689 37.3223C38.6933 38.4269 37.9708 39.7212 37.9334 41.3837C37.9085 42.4974 37.312 43.2777 36.2159 43.5801C36.0607 43.6242 24.2253 46.8047 24.2253 46.8047C23.5728 46.9795 22.8959 46.5884 22.721 45.9359L22.6942 45.8352C22.5193 45.1827 22.9102 44.5057 23.5629 44.3309C23.5629 44.3309 33.8776 41.4407 33.7019 41.6041C34.6425 41.3724 35.1871 40.8907 35.4145 39.9196C35.9006 37.8434 37.2509 36.2976 38.7328 34.8617C41.1884 32.4826 42.8438 29.7153 43.2896 26.2481C43.9568 21.0581 41.4395 15.6929 36.812 13.0888C31.8285 10.2844 26.8298 10.4692 22.1767 13.7906C15.6998 18.4138 14.7506 27.34 19.9401 33.3783C21.3861 35.0608 22.8556 36.7229 24.4692 38.572C28.714 37.9516 28.7139 37.9516 28.714 33.6347C28.7143 30.9512 28.7306 28.2674 28.7071 25.584C28.6985 24.6289 29.0109 23.8833 30.0313 23.9071C31.0394 23.9305 31.3338 24.7018 31.3304 25.6388C31.3154 29.7777 31.3063 33.9169 31.3335 38.0558C31.3402 39.0814 30.9537 39.6492 29.9364 39.8964C27.9521 40.3784 25.9941 40.9683 24.0094 41.4486C22.5802 41.7944 22.3922 41.3826 21.8054 40.0653C21.2202 38.7512 20.2658 37.5196 19.2276 36.5028C14.8013 32.1675 13.0523 26.9909 14.4575 20.9724C15.8771 14.8921 19.7813 10.9379 25.7692 9.18844C27.1337 8.78955 28.5471 8.58208 29.9687 8.57196ZM30.0217 18.5178C31.1001 18.5293 31.6346 19.1665 31.7115 20.1554C31.6278 21.2949 30.9834 21.9371 29.9827 21.9209C28.9863 21.9048 28.2612 21.2219 28.285 20.1821C28.3084 19.1704 28.9426 18.506 30.0217 18.5178ZM35.7644 46.4183C36.2977 46.4404 36.7809 46.805 36.9259 47.3462C37.1044 48.0121 36.7055 48.7029 36.0396 48.8813L26.692 51.386C26.0259 51.5644 25.3353 51.1657 25.1567 50.4996C24.9783 49.8338 25.3771 49.1429 26.0429 48.9646L35.3906 46.4598C35.5124 46.4271 35.6384 46.4131 35.7644 46.4183Z" fill="#1A73E9"/>
<path d="M100.583 12.1375V46H93.6061L80.0006 23.301V46H73.0234V12.1375H80.0006L93.6293 34.8598V12.1375H100.583ZM117.817 46.4651C115.863 46.4651 114.111 46.155 112.561 45.5349C111.01 44.8992 109.692 44.0231 108.607 42.9068C107.537 41.7904 106.715 40.4958 106.142 39.0228C105.568 37.5344 105.281 35.9529 105.281 34.2784V33.3481C105.281 31.441 105.553 29.6967 106.095 28.1152C106.638 26.5337 107.413 25.1615 108.421 23.9987C109.444 22.8358 110.685 21.9443 112.142 21.3241C113.6 20.6884 115.243 20.3705 117.073 20.3705C118.856 20.3705 120.437 20.6651 121.817 21.2543C123.197 21.8435 124.352 22.6808 125.282 23.7661C126.228 24.8514 126.941 26.1538 127.422 27.6733C127.903 29.1773 128.143 30.8518 128.143 32.6969V35.4877H108.142V31.0224H121.561V30.5107C121.561 29.5804 121.391 28.7509 121.05 28.0222C120.724 27.2779 120.228 26.6888 119.561 26.2546C118.894 25.8205 118.042 25.6034 117.003 25.6034C116.119 25.6034 115.359 25.7972 114.724 26.1849C114.088 26.5725 113.569 27.1151 113.165 27.8129C112.778 28.5106 112.483 29.3323 112.282 30.2781C112.096 31.2084 112.003 32.2317 112.003 33.3481V34.2784C112.003 35.2862 112.142 36.2165 112.421 37.0692C112.716 37.922 113.127 38.6585 113.654 39.2787C114.196 39.8989 114.848 40.3795 115.607 40.7206C116.383 41.0617 117.259 41.2323 118.235 41.2323C119.445 41.2323 120.569 40.9997 121.608 40.5346C122.662 40.0539 123.569 39.3329 124.329 38.3716L127.585 41.9067C127.058 42.6665 126.337 43.3952 125.422 44.0929C124.523 44.7906 123.437 45.3643 122.166 45.8139C120.895 46.2481 119.445 46.4651 117.817 46.4651ZM137.353 20.8357L141.516 28.4873L145.795 20.8357H152.935L145.819 33.1388L153.261 46H146.098L141.562 37.9065L137.027 46H129.864L137.306 33.1388L130.19 20.8357H137.353ZM171.076 39.9764V20.8357H177.774V46H171.471L171.076 39.9764ZM171.82 34.8133L173.797 34.7668C173.797 36.4413 173.603 37.9995 173.216 39.4415C172.828 40.8679 172.246 42.1083 171.471 43.1626C170.696 44.2014 169.719 45.0154 168.541 45.6046C167.362 46.1783 165.975 46.4651 164.378 46.4651C163.153 46.4651 162.021 46.2946 160.982 45.9535C159.959 45.5969 159.075 45.0465 158.331 44.3022C157.602 43.5425 157.028 42.5734 156.61 41.3951C156.207 40.2012 156.005 38.767 156.005 37.0925V20.8357H162.703V37.139C162.703 37.8832 162.789 38.5112 162.959 39.0228C163.145 39.5345 163.401 39.9531 163.727 40.2787C164.052 40.6043 164.432 40.8369 164.866 40.9764C165.316 41.116 165.812 41.1858 166.355 41.1858C167.735 41.1858 168.82 40.9067 169.611 40.3485C170.417 39.7903 170.983 39.0306 171.308 38.0693C171.65 37.0925 171.82 36.0072 171.82 34.8133ZM196.496 39.0461C196.496 38.5654 196.356 38.1313 196.077 37.7437C195.798 37.3561 195.279 36.9995 194.519 36.6739C193.775 36.3328 192.697 36.0227 191.286 35.7436C190.015 35.4645 188.829 35.1156 187.728 34.697C186.643 34.2629 185.697 33.7434 184.891 33.1388C184.1 32.5341 183.48 31.8209 183.03 30.9991C182.58 30.1618 182.356 29.2083 182.356 28.1385C182.356 27.0841 182.58 26.0918 183.03 25.1615C183.495 24.2312 184.154 23.4095 185.007 22.6963C185.875 21.9675 186.93 21.4016 188.17 20.9985C189.426 20.5799 190.837 20.3705 192.403 20.3705C194.589 20.3705 196.465 20.7194 198.031 21.4171C199.612 22.1148 200.822 23.0761 201.659 24.301C202.512 25.5104 202.938 26.8903 202.938 28.4408H196.24C196.24 27.7896 196.101 27.2082 195.822 26.6965C195.558 26.1693 195.139 25.7585 194.566 25.4639C194.007 25.1538 193.279 24.9987 192.379 24.9987C191.635 24.9987 190.992 25.1305 190.449 25.3941C189.906 25.6422 189.488 25.9833 189.193 26.4174C188.914 26.8361 188.775 27.3012 188.775 27.8129C188.775 28.2005 188.852 28.5493 189.007 28.8594C189.178 29.154 189.449 29.4254 189.821 29.6734C190.193 29.9215 190.674 30.1541 191.263 30.3712C191.868 30.5727 192.612 30.7588 193.496 30.9293C195.31 31.3014 196.93 31.7898 198.357 32.3945C199.783 32.9837 200.915 33.79 201.752 34.8133C202.589 35.8211 203.008 37.1468 203.008 38.7903C203.008 39.9066 202.76 40.9299 202.264 41.8602C201.768 42.7905 201.054 43.6045 200.124 44.3022C199.194 44.9844 198.077 45.5194 196.775 45.907C195.488 46.2791 194.038 46.4651 192.426 46.4651C190.085 46.4651 188.1 46.0465 186.472 45.2093C184.86 44.372 183.635 43.3099 182.797 42.023C181.976 40.7206 181.565 39.3872 181.565 38.0228H187.914C187.945 38.9376 188.178 39.674 188.612 40.2322C189.061 40.7904 189.627 41.1935 190.31 41.4416C191.007 41.6897 191.759 41.8137 192.566 41.8137C193.434 41.8137 194.155 41.6974 194.728 41.4648C195.302 41.2168 195.736 40.8912 196.031 40.488C196.341 40.0694 196.496 39.5888 196.496 39.0461Z" fill="#0D121E"/>
</svg>
